<?xml version="1.0" encoding="UTF-8"?>
<!DOCTYPE svg PUBLIC "-//W3C//DTD SVG 1.1//EN" "http://www.w3.org/Graphics/SVG/1.1/DTD/svg11.dtd">
<!-- Creator: CorelDRAW -->
<svg xmlns="http://www.w3.org/2000/svg" xml:space="preserve" width="64px" height="64px" version="1.1" style="shape-rendering:geometricPrecision; text-rendering:geometricPrecision; image-rendering:optimizeQuality; fill-rule:evenodd; clip-rule:evenodd"
viewBox="0 0 7.74 7.74"
 xmlns:xlink="http://www.w3.org/1999/xlink"
 xmlns:xodm="http://www.corel.com/coreldraw/odm/2003">
 <defs>
  <style type="text/css">
   <![CDATA[
    .str0 {stroke:#FEFEFE;stroke-width:0.08;stroke-miterlimit:22.9256}
    .fil1 {fill:none}
    .fil2 {fill:#FEFEFE}
    .fil0 {fill:url(#id0)}
   ]]>
  </style>
  <radialGradient id="id0" gradientUnits="userSpaceOnUse" gradientTransform="matrix(1.3895 -1.20036 1.22674 1.35963 -5 5)" cx="4.88" cy="2.4" r="2.62" fx="4.88" fy="2.4">
   <stop offset="0" style="stop-opacity:1; stop-color:#C1C11B"/>
   <stop offset="1" style="stop-opacity:1; stop-color:#ED6E00"/>
  </radialGradient>
 </defs>
 <g id="Слой_x0020_1">
  <metadata id="CorelCorpID_0Corel-Layer"/>
  <rect class="fil0" width="7.74" height="7.74" rx="0.46" ry="0.47"/>
  <rect class="fil1 str0" x="0.33" y="0.33" width="7.09" height="7.09" rx="0.29" ry="0.3"/>
  <path class="fil2" d="M1.27 3.72c0.18,-0.02 0.54,0 0.51,0.21 -0.04,0.21 -0.28,0.23 -0.5,0.2l-0.01 -0.41zm0.22 -0.55c-0.31,0 -0.62,0 -0.92,0 0.03,0.21 0.07,0.38 0.08,0.6 0.04,0.61 -0.01,1.32 -0.09,1.92l0.93 0c-0.03,-0.21 -0.19,-0.92 -0.15,-1.09 0.15,0.43 0.64,1.28 0.93,1.6 0.24,0.27 0.14,0.18 0.41,0.43 1.15,1.1 2.68,0.22 2.27,-0.48 -0.17,-0.3 -0.62,-0.22 -0.7,0.08 -0.07,0.28 0.2,0.29 0.24,0.31 -0.03,0.09 -0.48,0.26 -0.91,0.01 -0.32,-0.19 -0.4,-0.34 -0.61,-0.56 -0.04,-0.04 -0.09,-0.11 -0.13,-0.17l-0.36 -0.52c-0.1,-0.17 -0.31,-0.61 -0.34,-0.83 0.14,-0.09 0.17,-0.05 0.29,-0.18 0.27,-0.3 0.11,-0.78 -0.16,-0.97 -0.22,-0.15 -0.49,-0.15 -0.78,-0.15z"/>
  <path class="fil2" d="M2.97 3.18c0.14,0.49 0.19,0.48 0.18,1.09 -0.01,0.38 -0.05,0.81 0.15,1.11 0.16,0.24 0.49,0.4 0.92,0.34 0.32,-0.05 0.58,-0.23 0.7,-0.55 0.21,-0.54 0.01,-1.45 0.32,-2.21 0.35,-0.86 1.39,-0.89 1.54,-0.53 -0.13,-0.02 -0.22,-0.01 -0.26,0.09 -0.1,0.23 0.15,0.57 0.5,0.39 0.35,-0.17 0.27,-0.7 -0.02,-0.9 -0.48,-0.34 -1.12,-0.28 -1.64,0l-0.3 0.21c-0.29,0.27 -0.46,0.53 -0.56,1.01 -0.15,0.71 0.02,1.79 -0.48,1.59 -0.34,-0.13 -0.27,-0.83 -0.22,-1.11 0.04,-0.31 0.06,-0.3 0.15,-0.54l-0.98 0.01z"/>
  <path class="fil2" d="M5.48 0.91c-0.06,0 -0.07,0 -0.13,-0.03l0.03 -0.24 -0.21 0c0.03,0.26 0.02,0.33 0.01,0.58l0.21 0 -0.03 -0.2 0.12 0.03c0.01,0.26 0.08,0.55 0.36,0.53 0.17,-0.02 0.19,-0.2 0.09,-0.26 -0.04,-0.03 -0.12,-0.03 -0.14,0.04 -0.03,0.08 0.04,0.08 0.09,0.11 -0.11,0.01 -0.14,-0.02 -0.18,-0.1 -0.09,-0.18 -0.07,-0.55 -0.04,-0.73l-0.18 0 0 0.27z"/>
  <path class="fil2" d="M6.64 0.83c0.03,0.04 0.04,0.08 0.03,0.14l-0.07 0c0,-0.06 0.02,-0.1 0.04,-0.14zm-0.06 0.27l0.14 -0.01c0.02,0.18 0.08,0.34 0.21,0.39 0.18,0.07 0.39,0.01 0.3,-0.2 -0.06,-0.01 -0.09,-0.01 -0.14,0 -0.01,0.05 -0.03,0.08 0.03,0.11 -0.28,0.04 -0.32,-0.56 -0.32,-0.75l-0.28 0c-0.04,0.08 -0.05,0.21 -0.07,0.3 -0.02,0.09 -0.06,0.19 -0.08,0.28l0.22 0 -0.01 -0.12z"/>
  <path class="fil2" d="M6.42 1.38c-0.08,-0.09 -0.41,-0.35 -0.18,-0.65 0.04,-0.05 0.04,-0.04 0.07,-0.09 -0.42,0 -0.12,-0.01 -0.31,0.19l0.02 -0.19 -0.21 0c0.04,0.26 0.02,0.33 0.01,0.58l0.2 0 -0.02 -0.17c0.06,0.06 0.16,0.35 0.35,0.43 0.26,0.11 0.32,-0.22 0.15,-0.2 -0.07,0 -0.04,0.06 -0.08,0.1z"/>
  <path class="fil2" d="M1.17 1.38c-0.19,-0.14 -0.37,-0.41 -0.18,-0.66 0.01,-0.02 0.02,-0.02 0.03,-0.04 0.04,-0.04 0.01,0 0.03,-0.04l-0.22 0c-0.03,0.08 -0.01,0.13 -0.08,0.19l0.01 -0.19 -0.19 0c-0.01,0.07 0.02,0.2 0.02,0.29 0,0.1 -0.02,0.19 -0.03,0.29l0.2 0 -0.02 -0.18c0.09,0.14 0.15,0.27 0.26,0.37 0.13,0.12 0.39,0.14 0.34,-0.08 -0.02,-0.03 -0.06,-0.07 -0.11,-0.05 -0.05,0.02 -0.05,0.1 -0.05,0.09 0,-0.01 0,0 -0.01,0.01z"/>
  <path class="fil2" d="M1.98 1.08c-0.2,-0.1 -0.11,-0.38 0.05,-0.32 -0.07,0.02 -0.05,-0.01 -0.06,0.06 0.1,0.17 0.27,-0.09 0.11,-0.17 -0.15,-0.08 -0.3,0.02 -0.35,0.09 -0.08,0.11 -0.08,0.3 0,0.4 0.07,0.08 0.24,0.08 0.39,0.08l0 -0.27 -0.14 0 0 0.13z"/>
  <path class="fil2" d="M4.26 1.07c-0.09,0 -0.12,-0.02 -0.13,-0.11 0,-0.07 0.02,-0.16 0.07,-0.18 0.11,-0.04 0.11,0.19 0.06,0.29zm-0.29 -0.08c0.04,0.37 0.56,0.29 0.48,-0.12 -0.02,-0.13 -0.14,-0.29 -0.3,-0.23 -0.11,0.04 -0.19,0.19 -0.18,0.35z"/>
  <path class="fil2" d="M1.3 0.77c0.07,0.01 0.09,0.05 0.1,0.14 0,0.07 -0.02,0.15 -0.07,0.16 -0.13,0.02 -0.13,-0.23 -0.03,-0.3zm-0.23 0.22c0.04,0.37 0.56,0.28 0.48,-0.12 -0.03,-0.13 -0.14,-0.29 -0.3,-0.23 -0.11,0.04 -0.2,0.19 -0.18,0.35z"/>
  <path class="fil2" d="M3.28 0.64l-0.43 0c0.06,0.42 0.01,0.29 0.01,0.58l0.41 0 -0.02 -0.19c-0.15,0.1 -0.22,0.05 -0.19,-0.07 0.05,0 0.04,0.03 0.09,0.03 0.11,0.02 0.11,-0.2 -0.12,-0.11 0.04,-0.17 0.12,-0.15 0.23,-0.07l0.02 -0.17z"/>
  <path class="fil2" d="M5.06 1.01c-0.06,0.01 -0.17,0.16 -0.27,0 -0.07,-0.12 -0.01,-0.24 0.11,-0.26l-0.02 0.02c-0.02,0.04 -0.02,0.04 0.01,0.09 0.2,0.04 0.22,-0.22 0,-0.24 -0.17,-0.01 -0.28,0.1 -0.31,0.24 -0.1,0.42 0.56,0.5 0.48,0.15z"/>
  <path class="fil2" d="M3.41 0.8c0.08,-0.09 0.17,-0.06 0.17,0.09 0,0.12 -0.03,0.22 -0.03,0.33l0.2 0c0,-0.15 -0.08,-0.35 0.01,-0.46 0.06,-0.01 0.08,0.02 0.13,0.04l-0.01 -0.16 -0.47 0 0 0.16z"/>
  <path class="fil2" d="M2.25 0.79c0.28,-0.14 0.15,0.25 0.13,0.43l0.21 0c-0.01,-0.15 -0.08,-0.35 0.01,-0.46 0.06,0 0.08,0.02 0.13,0.04l-0.01 -0.16 -0.47 0 0 0.15z"/>
 </g>
</svg>
