<?xml version="1.0" encoding="UTF-8"?>
<!DOCTYPE svg PUBLIC "-//W3C//DTD SVG 1.1//EN" "http://www.w3.org/Graphics/SVG/1.1/DTD/svg11.dtd">
<!-- Creator: CorelDRAW -->
<svg xmlns="http://www.w3.org/2000/svg" xml:space="preserve" width="446px" height="64px" version="1.1" style="shape-rendering:geometricPrecision; text-rendering:geometricPrecision; image-rendering:optimizeQuality; fill-rule:evenodd; clip-rule:evenodd"
viewBox="0 0 52.83 7.61"
 xmlns:xlink="http://www.w3.org/1999/xlink"
 xmlns:xodm="http://www.corel.com/coreldraw/odm/2003">
 <defs>
  <style type="text/css">
   <![CDATA[
    .fil0 {fill:#B0CB1F}
   ]]>
  </style>
 </defs>
 <g id="Слой_x0020_1">
  <metadata id="CorelCorpID_0Corel-Layer"/>
  <path class="fil0" d="M38.88 2.29c-0.53,0.02 -0.57,0 -1.04,-0.23l0.23 -1.9 -1.64 -0.01c0.24,2.08 0.13,2.61 0.02,4.6l1.67 0 -0.22 -1.54 0.96 0.21c0.04,2.06 0.67,4.37 2.86,4.18 1.35,-0.12 1.47,-1.6 0.73,-2.07 -0.34,-0.22 -0.99,-0.22 -1.16,0.3 -0.22,0.68 0.37,0.67 0.7,0.9 -0.82,0.06 -1.11,-0.13 -1.42,-0.78 -0.68,-1.44 -0.54,-4.33 -0.27,-5.8l-1.46 0.03 0.04 2.11z"/>
  <path class="fil0" d="M48.03 1.67c0.21,0.33 0.31,0.62 0.25,1.09l-0.55 -0.01c0,-0.44 0.13,-0.79 0.3,-1.08zm-0.48 2.12l1.08 -0.04c0.2,1.41 0.67,2.64 1.7,3.06 1.41,0.58 3.04,0.06 2.33,-1.57 -0.42,-0.1 -0.65,-0.11 -1.05,0.02 -0.11,0.38 -0.28,0.62 0.22,0.83 -2.21,0.32 -2.53,-4.39 -2.55,-5.94l-2.23 0.04c-0.3,0.65 -0.33,1.65 -0.5,2.37 -0.17,0.73 -0.52,1.49 -0.63,2.19l1.72 0 -0.09 -0.96z"/>
  <path class="fil0" d="M46.26 6.03c-0.61,-0.75 -3.24,-2.78 -1.41,-5.17 0.3,-0.39 0.33,-0.28 0.54,-0.71 -3.28,0.03 -0.91,-0.05 -2.43,1.53l0.17 -1.53 -1.65 0c0.29,2.09 0.14,2.6 0.04,4.6l1.57 -0.01 -0.14 -1.32c0.52,0.44 1.26,2.74 2.8,3.4 2.08,0.89 2.51,-1.74 1.18,-1.62 -0.56,0.05 -0.35,0.49 -0.67,0.83z"/>
  <path class="fil0" d="M4.82 6c-1.55,-1.08 -2.94,-3.24 -1.48,-5.16 0.13,-0.17 0.19,-0.2 0.29,-0.34 0.26,-0.32 0.07,-0.04 0.23,-0.35l-1.76 0.05c-0.23,0.64 -0.07,0.99 -0.64,1.44l0.1 -1.49 -1.52 0c-0.08,0.55 0.16,1.59 0.16,2.28 -0.01,0.86 -0.16,1.54 -0.2,2.32l1.58 0 -0.16 -1.41c0.69,1.12 1.16,2.12 2.03,2.93 1.01,0.95 3.08,1.13 2.66,-0.66 -0.16,-0.25 -0.45,-0.54 -0.84,-0.37 -0.42,0.18 -0.37,0.82 -0.42,0.68 0,-0.02 -0.01,0.06 -0.03,0.08z"/>
  <path class="fil0" d="M11.2 3.61c-1.61,-0.71 -0.88,-2.99 0.4,-2.5 -0.54,0.15 -0.39,-0.05 -0.52,0.46 0.79,1.36 2.15,-0.66 0.88,-1.34 -1.17,-0.63 -2.32,0.17 -2.77,0.77 -0.62,0.83 -0.59,2.33 0.02,3.09 0.57,0.7 1.93,0.66 3.1,0.66l0.03 -2.12 -1.17 -0.01 0.03 0.99z"/>
  <path class="fil0" d="M29.2 3.57c-0.7,0.04 -0.93,-0.16 -0.99,-0.88 -0.04,-0.52 0.11,-1.25 0.52,-1.4 0.88,-0.32 0.91,1.53 0.47,2.28zm-2.25 -0.64c0.32,2.93 4.37,2.31 3.76,-0.96 -0.18,-0.98 -1.09,-2.29 -2.35,-1.8 -0.86,0.33 -1.55,1.52 -1.41,2.76z"/>
  <path class="fil0" d="M5.8 1.23c0.56,0.08 0.74,0.39 0.79,1.08 0.04,0.53 -0.1,1.17 -0.56,1.26 -0.97,0.18 -0.97,-1.78 -0.23,-2.34zm-1.78 1.7c0.34,2.93 4.39,2.25 3.76,-0.98 -0.2,-0.98 -1.11,-2.25 -2.38,-1.77 -0.82,0.31 -1.53,1.47 -1.38,2.75z"/>
  <path class="fil0" d="M21.44 0.15l-3.36 0c0.47,3.34 0.07,2.32 0.05,4.6l3.27 0 -0.17 -1.49c-1.18,0.81 -1.77,0.35 -1.47,-0.6 0.4,0.07 0.31,0.25 0.66,0.31 0.86,0.15 0.88,-1.64 -0.94,-0.88 0.31,-1.34 0.98,-1.18 1.8,-0.6l0.16 -1.34z"/>
  <path class="fil0" d="M35.51 3.09c-0.41,0.1 -1.34,1.24 -2.09,0 -0.55,-0.91 -0.13,-1.87 0.86,-2.06l-0.13 0.19c-0.18,0.31 -0.18,0.29 0.05,0.7 1.55,0.3 1.71,-1.72 0.01,-1.88 -1.36,-0.12 -2.24,0.78 -2.5,1.87 -0.78,3.32 4.46,3.99 3.8,1.18z"/>
  <path class="fil0" d="M22.5 1.4c0.61,-0.71 1.36,-0.43 1.37,0.78 0.01,0.92 -0.27,1.74 -0.28,2.57l1.6 0c-0.02,-1.14 -0.66,-2.78 0.06,-3.62 0.49,-0.07 0.67,0.13 1.03,0.3l-0.05 -1.27 -3.75 -0.01 0.02 1.25z"/>
  <path class="fil0" d="M13.29 1.34c2.22,-1.07 1.23,1.99 1.09,3.4l1.65 0.02c-0.07,-1.18 -0.64,-2.8 0.05,-3.66 0.47,-0.01 0.67,0.19 1.02,0.32l-0.1 -1.27 -3.68 0 -0.03 1.19z"/>
 </g>
</svg>
